<svg width="15" height="16" viewBox="0 0 15 16" fill="none" xmlns="http://www.w3.org/2000/svg">
<path d="M14.0043 2.95525C12.8065 2.83644 11.6087 2.74734 10.4034 2.68051V2.67309L10.2398 1.70781C10.1282 1.02468 9.96449 0 8.22359 0H6.27437C4.54091 0 4.37723 0.980132 4.2582 1.70038L4.10196 2.65081C3.41007 2.69536 2.71817 2.73991 2.02627 2.80674L0.508563 2.95525C0.196094 2.98495 -0.0270989 3.25968 0.0026601 3.56412C0.0324191 3.86855 0.30025 4.09131 0.61272 4.06161L2.13043 3.9131C6.02886 3.52699 9.95705 3.67549 13.9001 4.06903C13.9224 4.06903 13.9373 4.06903 13.9596 4.06903C14.2423 4.06903 14.4879 3.8537 14.5176 3.56412C14.5399 3.25968 14.3167 2.98495 14.0043 2.95525Z" fill="#949CAF"/>
<path d="M12.6387 5.14432C12.46 4.95869 12.2143 4.85474 11.9613 4.85474H2.55211C2.29902 4.85474 2.04592 4.95869 1.87471 5.14432C1.7035 5.32995 1.60673 5.58241 1.62162 5.84229L2.08314 13.4606C2.16503 14.5892 2.26924 16 4.86718 16H9.64619C12.2441 16 12.3483 14.5967 12.4302 13.4606L12.8917 5.84972C12.9066 5.58241 12.8099 5.32995 12.6387 5.14432ZM8.49238 12.28H6.01354C5.70834 12.28 5.45525 12.0275 5.45525 11.7231C5.45525 11.4186 5.70834 11.1662 6.01354 11.1662H8.49238C8.79758 11.1662 9.05067 11.4186 9.05067 11.7231C9.05067 12.0275 8.79758 12.28 8.49238 12.28ZM9.11767 9.30988H5.3957C5.09049 9.30988 4.8374 9.05742 4.8374 8.75299C4.8374 8.44855 5.09049 8.19609 5.3957 8.19609H9.11767C9.42287 8.19609 9.67596 8.44855 9.67596 8.75299C9.67596 9.05742 9.42287 9.30988 9.11767 9.30988Z" fill="#949CAF"/>
</svg>
