<svg width="16" height="16" viewBox="0 0 16 16" fill="none" xmlns="http://www.w3.org/2000/svg">
<path d="M15.0048 16H0.600191C0.272086 16 0 15.7279 0 15.3998C0 15.0717 0.272086 14.7996 0.600191 14.7996H15.0048C15.3329 14.7996 15.605 15.0717 15.605 15.3998C15.605 15.7279 15.3329 16 15.0048 16Z" fill="#949CAF"/>
<path d="M13.4204 1.17942C11.8679 -0.373071 10.3474 -0.413083 8.75493 1.17942L7.78663 2.14773C7.7066 2.22775 7.67459 2.3558 7.7066 2.46783C8.3148 4.5885 10.0113 6.28504 12.132 6.89324C12.164 6.90124 12.196 6.90924 12.228 6.90924C12.3161 6.90924 12.3961 6.87723 12.4601 6.81321L13.4204 5.8449C14.2127 5.06065 14.5968 4.30041 14.5968 3.53217C14.6048 2.73992 14.2207 1.97167 13.4204 1.17942Z" fill="#949CAF"/>
<path d="M10.6911 7.62135C10.4591 7.50932 10.235 7.39728 10.0189 7.26924C9.84287 7.16521 9.67481 7.05317 9.50676 6.93314C9.37072 6.84511 9.21067 6.71707 9.05862 6.58903C9.04261 6.58102 8.9866 6.53301 8.92258 6.46899C8.65849 6.24492 8.3624 5.95683 8.09831 5.63672C8.07431 5.62072 8.03429 5.5647 7.97828 5.49268C7.89825 5.39665 7.76221 5.2366 7.64217 5.05254C7.54614 4.9325 7.4341 4.75644 7.33007 4.58039C7.20203 4.36432 7.08999 4.14825 6.97796 3.92418C6.86592 3.6841 6.77789 3.45203 6.69787 3.23596L1.67227 8.26156C1.56824 8.36559 1.47221 8.56565 1.4482 8.7017L1.01607 11.7667C0.936041 12.3108 1.08809 12.823 1.4242 13.1671C1.71229 13.4472 2.11241 13.5993 2.54455 13.5993C2.64058 13.5993 2.73661 13.5912 2.83264 13.5752L5.90562 13.1431C6.04966 13.1191 6.24973 13.0231 6.34576 12.919L11.3714 7.89344C11.1473 7.81341 10.9312 7.72539 10.6911 7.62135Z" fill="#949CAF"/>
</svg>
